<svg width="43" height="43" viewBox="0 0 43 43" fill="none" xmlns="http://www.w3.org/2000/svg">
<g id="Bot&#195;&#163;o expandir">
<rect id="Rectangle 4270" x="0.926514" y="0.343994" width="41.252" height="41.8569" rx="8" fill="#F7F7FF"/>
<g id="Mais">
<path id="Vector" d="M21.5527 12.2975C20.9209 12.2975 20.4087 12.8097 20.4087 13.4415V29.6083C20.4087 30.2401 20.9209 30.7523 21.5527 30.7523C22.1845 30.7523 22.6967 30.2401 22.6967 29.6083V13.4415C22.6967 12.8097 22.1845 12.2975 21.5527 12.2975Z" fill="#7CA934" stroke="#022E4D" stroke-width="0.3" stroke-linecap="round"/>
<path id="Vector_2" d="M13.606 20.366C12.9695 20.366 12.456 20.8892 12.456 21.523C12.456 22.1567 12.9695 22.6799 13.606 22.6799H29.4985C30.1349 22.6799 30.6485 22.1567 30.6485 21.523C30.6485 20.8892 30.1349 20.366 29.4985 20.366H13.606Z" fill="#7CA934" stroke="#022E4D" stroke-width="0.3" stroke-linecap="round"/>
</g>
</g>
</svg>
